<?xml version="1.0" standalone="no"?>
<!DOCTYPE svg PUBLIC "-//W3C//DTD SVG 20010904//EN"
 "http://www.w3.org/TR/2001/REC-SVG-20010904/DTD/svg10.dtd">
<svg version="1.0" xmlns="http://www.w3.org/2000/svg"
 width="300.000000pt" height="285.000000pt" viewBox="0 0 300.000000 285.000000"
 preserveAspectRatio="xMidYMid meet">
<metadata>
Created by potrace 1.10, written by Peter Selinger 2001-2011
</metadata>
<g transform="translate(0.000000,285.000000) scale(0.100000,-0.100000)"
fill="#000000" stroke="none">
<path d="M1319 2623 c-14 -37 -6 -119 14 -141 16 -17 13 -19 -56 -40 -90 -27
-181 -80 -262 -155 l-63 -57 -119 -10 c-187 -16 -266 -47 -300 -119 -14 -32
-24 -40 -48 -43 -26 -3 -31 -8 -36 -42 -13 -82 20 -146 76 -146 l32 0 17 -107
c11 -70 24 -120 40 -147 20 -35 23 -48 16 -91 -4 -27 -12 -51 -18 -53 -24 -8
-217 -147 -257 -185 -50 -49 -68 -99 -54 -153 23 -81 127 -95 255 -35 36 17
70 29 74 26 5 -3 11 -24 15 -48 4 -23 27 -85 52 -137 79 -165 218 -282 417
-352 80 -27 80 -28 31 -23 -27 2 -100 7 -161 11 -146 8 -174 -4 -174 -78 0
-29 6 -41 25 -54 23 -15 45 -16 183 -10 l158 7 -4 -40 c-6 -57 18 -91 63 -91
23 0 39 7 48 20 14 20 15 20 20 -9 10 -48 81 -60 115 -19 7 10 10 28 5 48 l-6
33 -15 -37 c-18 -46 -49 -48 -81 -5 -22 29 -23 30 -47 14 -14 -9 -35 -15 -47
-13 -19 3 -22 10 -25 55 -2 42 -7 55 -25 65 -12 7 -25 11 -30 10 -20 -6 -272
-12 -288 -7 -22 7 -30 40 -14 61 10 15 28 17 111 16 55 -1 126 -5 159 -8 44
-4 65 -2 80 9 16 13 17 17 6 31 -7 9 -20 16 -27 16 -8 0 -14 4 -14 9 0 8 -55
24 -64 18 -2 -1 -12 5 -22 14 -11 9 -40 24 -66 34 -26 10 -53 24 -59 31 -6 8
-15 14 -20 14 -10 0 -17 7 -101 88 -59 56 -136 195 -158 285 -7 25 -20 53 -30
62 -17 15 -23 14 -92 -16 -78 -34 -136 -43 -181 -27 -31 12 -42 42 -34 94 7
40 47 82 140 144 20 14 37 28 37 33 0 4 7 7 15 7 8 0 15 5 15 10 0 6 6 10 14
10 7 0 32 17 55 38 36 32 43 44 48 90 5 44 2 61 -20 105 -14 29 -29 75 -32
102 -12 102 -15 119 -30 141 -10 15 -22 21 -40 19 -34 -3 -55 28 -55 81 0 33
4 43 24 52 13 6 37 30 53 54 32 48 87 90 109 81 8 -3 14 -1 14 5 0 6 9 8 20 5
11 -3 20 -1 20 4 0 5 15 9 33 10 17 0 69 1 115 2 l83 1 47 44 c26 24 65 55 86
70 21 14 35 26 30 26 -5 1 11 10 36 22 25 11 53 27 63 36 9 8 17 12 17 7 0 -4
7 -2 15 5 8 7 15 9 15 5 0 -4 7 -2 15 5 8 6 19 9 25 5 5 -3 10 -2 10 4 0 6 6
8 14 5 8 -3 21 4 29 16 13 18 13 27 2 53 -21 53 -25 93 -11 112 11 16 15 14
47 -18 19 -20 42 -45 52 -57 l18 -21 36 28 36 28 -7 -30 c-23 -95 -25 -93 84
-115 36 -7 70 -17 77 -22 7 -6 17 -7 23 -3 5 3 10 2 10 -3 0 -5 8 -12 18 -15
40 -14 106 -58 176 -119 72 -64 75 -65 145 -72 39 -4 75 -5 81 -1 12 8 106
-32 147 -62 18 -13 36 -35 39 -50 4 -16 19 -30 40 -39 36 -15 45 -41 30 -89
-11 -35 -22 -45 -52 -45 -33 0 -50 -29 -63 -105 -7 -38 -17 -89 -23 -112 -13
-54 6 -208 30 -241 9 -13 30 -31 47 -40 16 -9 37 -24 47 -33 10 -9 31 -22 45
-30 15 -8 41 -26 57 -41 16 -16 32 -28 36 -28 17 0 49 -70 44 -97 -7 -44 -53
-73 -99 -63 -23 5 -31 7 -45 13 -99 39 -141 49 -154 38 -7 -6 -21 -41 -30 -77
-19 -76 -79 -195 -132 -262 -21 -26 -63 -66 -95 -89 -57 -43 -179 -116 -179
-107 0 2 -17 -3 -37 -12 -21 -8 -51 -17 -67 -19 -16 -3 -40 -12 -53 -21 l-25
-16 20 -20 c18 -18 33 -21 144 -21 67 0 157 3 198 7 41 4 95 9 120 11 93 8
150 27 150 49 0 6 -11 28 -25 48 -22 33 -35 98 -19 98 3 0 25 -12 49 -26 l44
-25 18 20 c9 12 23 21 30 21 7 0 13 4 13 8 0 4 11 9 25 10 31 2 33 -24 6 -84
-21 -46 -14 -63 24 -65 11 -1 -20 -12 -70 -24 -49 -13 -104 -28 -122 -33 -17
-6 -33 -8 -36 -6 -2 3 -26 0 -53 -6 -65 -15 -313 -40 -395 -40 -77 0 -99 -16
-94 -67 3 -35 -18 -73 -41 -73 -8 0 -24 11 -36 25 -28 32 -34 31 -52 -4 -27
-51 -62 -51 -90 2 l-17 32 5 -38 c6 -49 21 -67 55 -67 37 0 59 19 63 55 l3 30
15 -30 c12 -23 23 -31 49 -33 52 -5 73 21 69 85 l-3 53 85 0 c111 0 331 25
445 49 216 47 281 63 289 71 6 6 2 18 -9 30 -16 17 -26 20 -55 15 l-35 -7 24
26 c31 33 43 132 18 142 -23 8 -82 -13 -117 -43 -17 -14 -30 -21 -30 -16 0 15
-80 55 -97 49 -12 -5 -15 -18 -11 -68 4 -52 9 -65 35 -88 l30 -27 -141 -17
c-82 -9 -207 -16 -301 -15 l-160 0 80 20 c104 26 206 77 287 143 79 65 115
111 166 207 39 72 50 100 72 186 l10 42 65 -31 c83 -38 170 -48 208 -23 16 10
32 34 38 56 24 77 -25 137 -203 253 -86 56 -87 57 -93 104 -3 26 -9 65 -13 88
-6 26 -4 53 4 76 7 20 15 63 19 95 10 96 13 103 39 103 38 0 56 10 71 41 15
29 19 87 9 127 -5 16 -14 22 -35 22 -23 0 -32 6 -40 28 -28 75 -117 119 -262
129 l-92 6 -62 58 c-102 95 -239 164 -366 184 -36 6 -37 7 -22 28 15 22 21 93
8 100 -13 7 -73 -22 -79 -38 -8 -21 -24 -19 -24 3 0 28 -76 92 -110 92 -6 0
-15 -12 -21 -27z"/>
<path d="M950 2516 c-72 -20 -135 -59 -125 -76 3 -5 23 -6 45 -3 22 3 80 -2
129 -12 48 -10 95 -16 103 -12 26 9 28 56 4 84 -26 31 -90 38 -156 19z m128
-30 c14 -9 16 -46 2 -46 -5 0 -31 4 -57 10 -26 5 -61 12 -77 14 -39 7 -45 16
-10 16 16 0 35 4 42 9 16 9 83 8 100 -3z"/>
<path d="M1828 2505 c-21 -12 -28 -23 -28 -45 0 -43 23 -51 100 -35 36 8 89
14 118 15 28 0 52 4 52 10 0 5 -23 21 -52 36 -64 33 -151 41 -190 19z m115
-24 c22 -4 0 -18 -45 -29 -56 -13 -81 -4 -59 22 10 12 56 15 104 7z"/>
<path d="M780 2139 c-25 -5 -46 -13 -48 -19 -2 -5 -10 -10 -18 -10 -7 0 -25
-18 -40 -41 -22 -35 -25 -52 -25 -114 0 -41 3 -84 6 -97 2 -13 7 -34 10 -48
13 -71 29 -120 56 -177 29 -61 73 -108 90 -97 5 3 15 2 22 -3 14 -9 47 -13
142 -15 148 -4 241 26 277 88 37 63 58 178 55 302 -2 133 -14 160 -91 210 -40
26 -44 27 -216 29 -96 1 -195 -3 -220 -8z m374 -29 c45 -10 81 -34 110 -74 18
-23 21 -42 21 -124 -1 -98 -24 -229 -52 -289 -23 -51 -74 -66 -238 -71 -184
-5 -204 2 -245 90 -42 90 -61 169 -67 279 -8 140 11 170 119 188 71 12 303 13
352 1z"/>
<path d="M1008 1903 c-37 -42 -28 -101 19 -122 34 -16 47 -14 77 10 35 27 37
90 4 113 -30 21 -81 20 -100 -1z m76 -26 c11 -8 17 -23 14 -38 -2 -19 -10 -25
-35 -27 -44 -4 -63 28 -33 58 24 24 30 24 54 7z"/>
<path d="M1728 2139 c-10 -5 -18 -7 -18 -4 0 18 -84 -42 -107 -77 -27 -39 -28
-47 -28 -157 1 -96 11 -190 28 -246 15 -48 50 -94 80 -104 117 -39 231 -47
357 -27 24 4 54 19 72 35 16 16 69 113 72 135 1 6 4 16 8 21 12 20 37 131 44
197 13 133 -32 204 -143 227 -70 14 -342 14 -365 0z m341 -29 c120 -17 150
-66 132 -215 -11 -93 -42 -198 -80 -273 -34 -66 -65 -75 -236 -70 -164 5 -214
20 -238 71 -44 92 -64 329 -35 398 18 41 57 73 108 87 45 13 266 14 349 2z"/>
<path d="M1799 1918 c-32 -11 -54 -57 -45 -93 6 -24 51 -55 79 -55 8 0 26 9
41 21 28 22 35 64 16 99 -13 25 -59 39 -91 28z m52 -38 c24 -13 25 -56 2 -68
-30 -16 -63 3 -63 37 0 38 24 50 61 31z"/>
<path d="M1410 1833 c-34 -14 -60 -54 -85 -128 -24 -73 -24 -79 -9 -97 10 -10
22 -18 28 -18 6 -1 29 -9 51 -20 53 -26 63 -25 96 8 15 15 38 35 52 44 25 18
25 18 10 75 -14 56 -33 94 -59 121 -15 15 -63 24 -84 15z m76 -45 c7 -7 24
-43 37 -80 22 -61 23 -68 8 -68 -10 0 -32 -14 -50 -32 l-32 -31 -38 21 c-21
12 -49 22 -61 22 -17 0 -21 4 -15 18 4 9 15 43 25 75 10 32 25 66 34 76 18 20
72 20 92 -1z"/>
</g>
</svg>
